<svg xmlns="http://www.w3.org/2000/svg" viewBox="0 0 56 56"><rect width="56" height="56" rx="12" fill="#c6e443"/>
  <g transform="rotate(-22 28 28)" fill="none" stroke-linecap="round">
    <path d="M4 28a24 8 0 0 1 48 0" stroke="#111418" stroke-width="7"/>
    <path d="M4 28a24 8 0 0 1 48 0" stroke="#e8f7a8" stroke-width="3.5"/>
  </g>
  <circle cx="28" cy="28" r="17" fill="#5aa9e6" stroke="#111418" stroke-width="2.5"/>
  <path d="M17 20c3-3 7-2 9 0s1 5-2 6-3 4-6 4-4-3-3-5-1-3 2-5zM31 15c3 0 6 2 7 5s-2 4-4 3-4 1-5-1 0-7 2-7zM30 33c3-1 7 0 8 3s-2 6-5 6-5-2-5-4 0-4 2-5z" fill="#7cc242" stroke="#111418" stroke-width="1.4"/>
  <g transform="rotate(-22 28 28)">
    <path d="M52 28a24 8 0 0 1-44 1" fill="none" stroke="#111418" stroke-width="7" stroke-linecap="round"/>
    <path d="M52 28a24 8 0 0 1-44 1" fill="none" stroke="#e8f7a8" stroke-width="3.5" stroke-linecap="round"/>
    <path d="M1 29l10-7 1 13z" fill="#e8f7a8" stroke="#111418" stroke-width="2" stroke-linejoin="round"/>
  </g>
</svg>
